<svg width="128" height="128" viewBox="0 0 128 128" fill="none" xmlns="http://www.w3.org/2000/svg">
<path d="M61.484 5.10217C61.6745 5.08201 61.8656 5.06537 62.0567 5.05222C65.4714 4.82849 68.895 5.32531 72.105 6.51057C75.3042 7.70197 78.9997 9.96617 81.9651 11.716C84.9396 13.4714 87.9244 15.209 90.9193 16.9291L100.379 22.3936C103.455 24.1504 106.996 26.0037 109.649 28.3222C114.435 32.5176 117.366 38.4364 117.802 44.7853C118.165 50.1774 117.917 58.2776 117.922 63.8409L117.932 75.4099C117.934 79.0334 118.121 82.8123 117.349 86.3468C116.394 90.5656 114.396 94.4774 111.537 97.7239C108.445 101.217 104.472 103.167 100.482 105.434C97.2581 107.256 94.0478 109.102 90.8515 110.971L80.5876 116.971C75.1703 120.135 71.7252 122.439 65.2103 122.87C65.0203 122.897 64.8296 122.918 64.6382 122.934C55.6212 123.673 48.4892 118.091 41.0742 113.856L28.2901 106.472C24.7169 104.423 20.7654 102.366 17.6039 99.7942C12.6036 95.7264 9.68899 89.4215 9.13944 83.0714C8.9396 80.7634 9.01147 78.1192 9.01731 75.7586L9.02432 65.6147L9.03104 52.9045C9.03367 44.731 8.8911 37.3928 14.8088 30.8306C19.6909 25.4169 27.3379 21.9893 33.6261 18.3033L45.5729 11.3927C51.4354 8.018 54.5452 5.71174 61.484 5.10217Z" fill="#101010"/>
<path d="M104.638 45.0155C106.898 44.8314 107.899 46.3099 107.92 48.464C107.84 53.474 108.12 58.5692 107.936 63.5732C107.684 70.4008 108.678 78.4258 106.953 84.9482C104.858 92.8738 98.8721 96.0617 92.3346 99.4893C89.1703 101.148 85.8781 103.32 82.6839 104.974C78.2925 107.552 73.6908 108.413 70.9532 103.02C69.6263 99.9005 70.0618 92.7281 70.0927 88.9571C73.0735 87.4076 76.0273 85.8044 78.9529 84.1483C80.7831 83.1302 83.1824 81.7084 85.0451 80.9124L85.0237 87.7323C87.1552 86.6417 91.246 84.4377 93.255 83.2447C93.0237 79.6138 93.1327 75.0884 93.1301 71.3841L93.1225 51.1691C95.6158 49.7219 102.318 45.8828 104.638 45.0155Z" fill="#FEFEFE"/>
</svg>
