<svg width="720" height="480" viewBox="0 0 720 480" fill="none" xmlns="http://www.w3.org/2000/svg">
  <defs>
    <linearGradient id="panel" x1="120" y1="70" x2="600" y2="410" gradientUnits="userSpaceOnUse">
      <stop stop-color="#202839"/>
      <stop offset="1" stop-color="#10141D"/>
    </linearGradient>
    <linearGradient id="blue" x1="0" y1="0" x2="1" y2="1">
      <stop stop-color="#4F83FF"/>
      <stop offset="1" stop-color="#1E6BFF"/>
    </linearGradient>
    <filter id="shadow" x="40" y="20" width="640" height="450" filterUnits="userSpaceOnUse">
      <feDropShadow dx="0" dy="24" stdDeviation="24" flood-color="#000" flood-opacity=".4"/>
    </filter>
  </defs>
  <g filter="url(#shadow)">
    <rect x="86" y="72" width="492" height="326" rx="22" fill="url(#panel)" stroke="#FFFFFF" stroke-opacity=".12"/>
    <rect x="86" y="72" width="492" height="42" rx="22" fill="#293247"/>
    <circle cx="111" cy="93" r="5" fill="#38BDF8"/>
    <circle cx="129" cy="93" r="5" fill="#1E6BFF"/>
    <circle cx="147" cy="93" r="5" fill="#FFF" fill-opacity=".25"/>
    <rect x="104" y="132" width="92" height="246" rx="12" fill="#0C1018"/>
    <rect x="122" y="155" width="54" height="7" rx="3.5" fill="#FFF" fill-opacity=".7"/>
    <rect x="122" y="185" width="42" height="6" rx="3" fill="#FFF" fill-opacity=".2"/>
    <rect x="122" y="210" width="51" height="6" rx="3" fill="#FFF" fill-opacity=".2"/>
    <rect x="122" y="235" width="38" height="6" rx="3" fill="#FFF" fill-opacity=".2"/>
    <rect x="214" y="132" width="344" height="66" rx="14" fill="#161D2A"/>
    <rect x="235" y="152" width="92" height="10" rx="5" fill="#FFF" fill-opacity=".75"/>
    <rect x="235" y="173" width="160" height="7" rx="3.5" fill="#FFF" fill-opacity=".18"/>
    <rect x="214" y="216" width="162" height="144" rx="14" fill="#161D2A"/>
    <rect x="396" y="216" width="162" height="144" rx="14" fill="#161D2A"/>
    <path d="M241 323L270 287L300 304L336 253" stroke="url(#blue)" stroke-width="8" stroke-linecap="round" stroke-linejoin="round"/>
    <circle cx="241" cy="323" r="6" fill="#38BDF8"/>
    <circle cx="270" cy="287" r="6" fill="#38BDF8"/>
    <circle cx="300" cy="304" r="6" fill="#38BDF8"/>
    <circle cx="336" cy="253" r="6" fill="#38BDF8"/>
    <rect x="418" y="302" width="16" height="38" rx="4" fill="#1E6BFF" fill-opacity=".55"/>
    <rect x="446" y="282" width="16" height="58" rx="4" fill="#1E6BFF" fill-opacity=".75"/>
    <rect x="474" y="262" width="16" height="78" rx="4" fill="#38BDF8" fill-opacity=".85"/>
    <rect x="502" y="290" width="16" height="50" rx="4" fill="#1E6BFF" fill-opacity=".6"/>
    <rect x="530" y="248" width="16" height="92" rx="4" fill="#38BDF8"/>
  </g>
  <g transform="translate(505 258) rotate(4)">
    <rect width="132" height="144" rx="20" fill="#151B27" stroke="#FFFFFF" stroke-opacity=".18"/>
    <circle cx="66" cy="48" r="23" fill="#1E6BFF" fill-opacity=".2" stroke="#4F83FF"/>
    <circle cx="66" cy="42" r="8" fill="#FFF" fill-opacity=".8"/>
    <path d="M49 62C52 53 59 50 66 50C73 50 80 53 83 62" stroke="#FFF" stroke-opacity=".8" stroke-width="4" stroke-linecap="round"/>
    <rect x="27" y="90" width="78" height="8" rx="4" fill="#FFF" fill-opacity=".65"/>
    <rect x="39" y="110" width="54" height="6" rx="3" fill="#FFF" fill-opacity=".2"/>
  </g>
</svg>
