<svg width="131" height="48" viewBox="0 0 131 48" fill="none" xmlns="http://www.w3.org/2000/svg">
<g clip-path="url(#clip0_2013_6)">
<path d="M14.606 10.8986C16.0297 10.762 17.174 11.2339 18.3616 11.9356C19.121 12.3842 19.896 12.8285 20.6624 13.2644L23.2487 14.7498C23.8941 15.1205 24.6051 15.4856 25.1802 15.9513C26.2954 16.8424 27.0049 18.1401 27.1499 19.5545C27.198 20.0466 27.1817 20.6553 27.1813 21.1623L27.1805 23.5771L27.1861 26.4836C27.1909 28.4517 27.2423 29.7533 25.8784 31.3724C25.6087 31.6979 25.2965 31.9863 24.9499 32.2298C24.4499 32.5798 23.8243 32.9199 23.2863 33.2291L20.7077 34.7073L18.7038 35.8653C17.4632 36.5841 16.8598 36.971 15.3721 37.1095C13.2433 37.268 11.9353 36.1796 10.2104 35.2074C9.10463 34.59 8.00513 33.9616 6.91208 33.3223C6.22823 32.9306 5.44055 32.5228 4.8381 32.0516C3.83258 31.2547 3.00244 29.8411 2.8855 28.544C2.76921 27.2552 2.82693 25.8032 2.82608 24.494L2.82445 21.6263C2.82445 20.8096 2.791 19.7828 2.96031 18.9963C3.15011 18.1326 3.54665 17.3269 4.11636 16.6477C4.93157 15.6747 6.13673 15.1126 7.22534 14.4918L9.98936 12.8999C11.5449 12.0216 12.7652 11.0577 14.606 10.8986ZM21.6318 21.2443C21.6142 23.599 21.6174 25.9539 21.6411 28.3087L19.7433 29.3125C19.7336 28.8446 19.7117 28.263 19.75 27.8036C18.6413 28.3383 17.5453 29.0518 16.4287 29.549C16.4218 30.3564 16.3267 31.92 16.6001 32.5938C17.2635 33.8387 18.3074 33.5918 19.3169 32.9912C20.0217 32.5719 20.7808 32.2 21.4904 31.783C23.009 30.9993 24.1698 30.4159 24.7017 28.6171C24.8027 28.2759 24.8642 27.9243 24.8852 27.5692C24.952 26.496 24.9002 24.8459 24.9 23.7362L24.901 21.674C24.9033 21.0323 25.1315 19.7799 24.1282 19.9292C23.5439 20.1647 22.2714 20.911 21.6318 21.2443Z" fill="black"/>
<path d="M37.608 17.3636H40.3807V25.4091C40.3769 26.1629 40.197 26.822 39.8409 27.3864C39.4848 27.947 38.9924 28.3826 38.3636 28.6932C37.7386 29.0038 37.0152 29.1591 36.1932 29.1591C35.4659 29.1591 34.8049 29.0322 34.2102 28.7784C33.6193 28.5246 33.1477 28.1307 32.7955 27.5966C32.447 27.0625 32.2746 26.3788 32.2784 25.5455H35.0795C35.0909 25.8447 35.1477 26.1004 35.25 26.3125C35.3561 26.5208 35.5019 26.678 35.6875 26.7841C35.8731 26.8902 36.0947 26.9432 36.3523 26.9432C36.6212 26.9432 36.8485 26.8864 37.0341 26.7727C37.2197 26.6553 37.3598 26.483 37.4545 26.2557C37.553 26.0284 37.6042 25.7462 37.608 25.4091V17.3636ZM46.2259 29.1648C45.313 29.1648 44.5251 28.9848 43.8622 28.625C43.2031 28.2614 42.6955 27.7443 42.3395 27.0739C41.9872 26.3996 41.8111 25.5985 41.8111 24.6705C41.8111 23.7689 41.9891 22.9811 42.3452 22.3068C42.7012 21.6288 43.2031 21.1023 43.8509 20.7273C44.4986 20.3485 45.2618 20.1591 46.1406 20.1591C46.7618 20.1591 47.33 20.2557 47.8452 20.4489C48.3603 20.642 48.8054 20.928 49.1804 21.3068C49.5554 21.6856 49.8471 22.1534 50.0554 22.7102C50.2637 23.2633 50.3679 23.8977 50.3679 24.6136V25.3068H42.7827V23.6932H47.7827C47.7789 23.3977 47.7088 23.1345 47.5724 22.9034C47.4361 22.6723 47.2486 22.4924 47.0099 22.3636C46.7751 22.2311 46.5043 22.1648 46.1974 22.1648C45.8868 22.1648 45.6084 22.2348 45.3622 22.375C45.116 22.5114 44.9209 22.6989 44.777 22.9375C44.633 23.1723 44.5573 23.4394 44.5497 23.7386V25.3807C44.5497 25.7367 44.6198 26.0492 44.7599 26.3182C44.9001 26.5833 45.099 26.7898 45.3565 26.9375C45.6141 27.0852 45.9209 27.1591 46.277 27.1591C46.5232 27.1591 46.7467 27.125 46.9474 27.0568C47.1482 26.9886 47.3205 26.8883 47.4645 26.7557C47.6084 26.6231 47.7164 26.4602 47.7884 26.267L50.3395 26.3409C50.2334 26.9129 50.0005 27.411 49.6406 27.8352C49.2846 28.2557 48.8168 28.5833 48.2372 28.8182C47.6577 29.0492 46.9872 29.1648 46.2259 29.1648ZM51.7869 29V20.2727H54.4858V21.8636H54.5767C54.7358 21.2879 54.9953 20.8598 55.3551 20.5795C55.715 20.2955 56.1335 20.1534 56.6108 20.1534C56.7396 20.1534 56.8722 20.1629 57.0085 20.1818C57.1449 20.197 57.2718 20.2216 57.3892 20.2557V22.6705C57.2566 22.625 57.0824 22.589 56.8665 22.5625C56.6544 22.536 56.465 22.5227 56.2983 22.5227C55.9688 22.5227 55.6714 22.5966 55.4062 22.7443C55.1449 22.8883 54.9384 23.0909 54.7869 23.3523C54.6392 23.6098 54.5653 23.9129 54.5653 24.2614V29H51.7869ZM60.6534 29.1477C60.0966 29.1477 59.6023 29.0549 59.1705 28.8693C58.7424 28.6799 58.4034 28.3958 58.1534 28.017C57.9072 27.6345 57.7841 27.1553 57.7841 26.5795C57.7841 26.0947 57.8693 25.6856 58.0398 25.3523C58.2102 25.0189 58.4451 24.7481 58.7443 24.5398C59.0436 24.3314 59.3883 24.1742 59.7784 24.0682C60.1686 23.9583 60.5852 23.8845 61.0284 23.8466C61.5246 23.8011 61.9242 23.7538 62.2273 23.7045C62.5303 23.6515 62.75 23.5777 62.8864 23.483C63.0265 23.3845 63.0966 23.2462 63.0966 23.0682V23.0398C63.0966 22.7481 62.9962 22.5227 62.7955 22.3636C62.5947 22.2045 62.3239 22.125 61.983 22.125C61.6155 22.125 61.3201 22.2045 61.0966 22.3636C60.8731 22.5227 60.7311 22.7424 60.6705 23.0227L58.108 22.9318C58.1837 22.4015 58.3788 21.928 58.6932 21.5114C59.0114 21.0909 59.447 20.7614 60 20.5227C60.5568 20.2803 61.2254 20.1591 62.0057 20.1591C62.5625 20.1591 63.0758 20.2254 63.5455 20.358C64.0152 20.4867 64.4242 20.6761 64.7727 20.9261C65.1212 21.1723 65.3902 21.4754 65.5795 21.8352C65.7727 22.1951 65.8693 22.6061 65.8693 23.0682V29H63.2557V27.7841H63.1875C63.0322 28.0795 62.8333 28.3295 62.5909 28.5341C62.3523 28.7386 62.0701 28.892 61.7443 28.9943C61.4223 29.0966 61.0587 29.1477 60.6534 29.1477ZM61.5114 27.3295C61.8106 27.3295 62.0795 27.2689 62.3182 27.1477C62.5606 27.0265 62.7538 26.8598 62.8977 26.6477C63.0417 26.4318 63.1136 26.1818 63.1136 25.8977V25.0682C63.0341 25.1098 62.9375 25.1477 62.8239 25.1818C62.714 25.2159 62.5928 25.2481 62.4602 25.2784C62.3277 25.3087 62.1913 25.3352 62.0511 25.358C61.911 25.3807 61.7765 25.4015 61.6477 25.4205C61.3864 25.4621 61.1629 25.5265 60.9773 25.6136C60.7955 25.7008 60.6553 25.8144 60.5568 25.9545C60.4621 26.0909 60.4148 26.2538 60.4148 26.4432C60.4148 26.7311 60.517 26.9508 60.7216 27.1023C60.9299 27.2538 61.1932 27.3295 61.5114 27.3295ZM70.3466 17.3636V29H67.5682V17.3636H70.3466ZM75.5526 29V17.3636H80.3594C81.2306 17.3636 81.9825 17.5341 82.6151 17.875C83.2514 18.2121 83.742 18.6837 84.0866 19.2898C84.4313 19.892 84.6037 20.5928 84.6037 21.392C84.6037 22.1951 84.4276 22.8977 84.0753 23.5C83.7268 24.0985 83.2287 24.5625 82.581 24.892C81.9332 25.2216 81.1643 25.3864 80.2741 25.3864H77.3082V23.1705H79.7514C80.1757 23.1705 80.5298 23.0966 80.8139 22.9489C81.1018 22.8011 81.3196 22.5947 81.4673 22.3295C81.6151 22.0606 81.6889 21.7481 81.6889 21.392C81.6889 21.0322 81.6151 20.7216 81.4673 20.4602C81.3196 20.1951 81.1018 19.9905 80.8139 19.8466C80.526 19.7027 80.1719 19.6307 79.7514 19.6307H78.3651V29H75.5526ZM85.9901 29V20.2727H88.7685V29H85.9901ZM87.3821 19.2557C86.992 19.2557 86.6567 19.1269 86.3764 18.8693C86.0961 18.608 85.956 18.2936 85.956 17.9261C85.956 17.5625 86.0961 17.2519 86.3764 16.9943C86.6567 16.733 86.992 16.6023 87.3821 16.6023C87.776 16.6023 88.1113 16.733 88.3878 16.9943C88.6681 17.2519 88.8082 17.5625 88.8082 17.9261C88.8082 18.2936 88.6681 18.608 88.3878 18.8693C88.1113 19.1269 87.776 19.2557 87.3821 19.2557ZM93.3153 24.0227V29H90.5369V20.2727H93.179V21.875H93.2756C93.4688 21.3409 93.7983 20.9223 94.2642 20.6193C94.7301 20.3125 95.285 20.1591 95.929 20.1591C96.5426 20.1591 97.0748 20.2973 97.5256 20.5739C97.9801 20.8466 98.3324 21.2292 98.5824 21.7216C98.8362 22.2102 98.9612 22.7822 98.9574 23.4375V29H96.179V23.983C96.1828 23.4981 96.0597 23.1193 95.8097 22.8466C95.5634 22.5739 95.2206 22.4375 94.7812 22.4375C94.4896 22.4375 94.232 22.5019 94.0085 22.6307C93.7888 22.7557 93.6184 22.9356 93.4972 23.1705C93.3797 23.4053 93.3191 23.6894 93.3153 24.0227ZM104.757 29.1648C103.844 29.1648 103.056 28.9848 102.393 28.625C101.734 28.2614 101.227 27.7443 100.871 27.0739C100.518 26.3996 100.342 25.5985 100.342 24.6705C100.342 23.7689 100.52 22.9811 100.876 22.3068C101.232 21.6288 101.734 21.1023 102.382 20.7273C103.03 20.3485 103.793 20.1591 104.672 20.1591C105.293 20.1591 105.861 20.2557 106.376 20.4489C106.892 20.642 107.337 20.928 107.712 21.3068C108.087 21.6856 108.378 22.1534 108.587 22.7102C108.795 23.2633 108.899 23.8977 108.899 24.6136V25.3068H101.314V23.6932H106.314C106.31 23.3977 106.24 23.1345 106.104 22.9034C105.967 22.6723 105.78 22.4924 105.541 22.3636C105.306 22.2311 105.036 22.1648 104.729 22.1648C104.418 22.1648 104.14 22.2348 103.893 22.375C103.647 22.5114 103.452 22.6989 103.308 22.9375C103.164 23.1723 103.089 23.4394 103.081 23.7386V25.3807C103.081 25.7367 103.151 26.0492 103.291 26.3182C103.431 26.5833 103.63 26.7898 103.888 26.9375C104.145 27.0852 104.452 27.1591 104.808 27.1591C105.054 27.1591 105.278 27.125 105.479 27.0568C105.679 26.9886 105.852 26.8883 105.996 26.7557C106.14 26.6231 106.248 26.4602 106.32 26.267L108.871 26.3409C108.765 26.9129 108.532 27.411 108.172 27.8352C107.816 28.2557 107.348 28.5833 106.768 28.8182C106.189 29.0492 105.518 29.1648 104.757 29.1648ZM113.506 29.125C112.862 29.125 112.277 28.9583 111.75 28.625C111.223 28.2917 110.803 27.7917 110.489 27.125C110.174 26.4583 110.017 25.6307 110.017 24.642C110.017 23.6155 110.18 22.7708 110.506 22.108C110.831 21.4451 111.258 20.9545 111.784 20.6364C112.314 20.3182 112.884 20.1591 113.494 20.1591C113.953 20.1591 114.345 20.2386 114.67 20.3977C114.996 20.553 115.265 20.7538 115.477 21C115.689 21.2462 115.85 21.5019 115.96 21.767H116.017V17.3636H118.795V29H116.045V27.5852H115.96C115.843 27.8542 115.676 28.1061 115.46 28.3409C115.244 28.5758 114.973 28.7652 114.648 28.9091C114.326 29.053 113.945 29.125 113.506 29.125ZM114.472 26.9602C114.809 26.9602 115.097 26.8655 115.335 26.6761C115.574 26.483 115.758 26.2121 115.886 25.8636C116.015 25.5152 116.08 25.1061 116.08 24.6364C116.08 24.1591 116.015 23.7481 115.886 23.4034C115.761 23.0587 115.578 22.7936 115.335 22.608C115.097 22.4223 114.809 22.3295 114.472 22.3295C114.127 22.3295 113.835 22.4242 113.597 22.6136C113.358 22.803 113.176 23.0701 113.051 23.4148C112.93 23.7595 112.869 24.1667 112.869 24.6364C112.869 25.1061 112.932 25.5152 113.057 25.8636C113.182 26.2121 113.362 26.483 113.597 26.6761C113.835 26.8655 114.127 26.9602 114.472 26.9602ZM123.013 29.1477C122.456 29.1477 121.962 29.0549 121.53 28.8693C121.102 28.6799 120.763 28.3958 120.513 28.017C120.267 27.6345 120.143 27.1553 120.143 26.5795C120.143 26.0947 120.229 25.6856 120.399 25.3523C120.57 25.0189 120.804 24.7481 121.104 24.5398C121.403 24.3314 121.748 24.1742 122.138 24.0682C122.528 23.9583 122.945 23.8845 123.388 23.8466C123.884 23.8011 124.284 23.7538 124.587 23.7045C124.89 23.6515 125.109 23.5777 125.246 23.483C125.386 23.3845 125.456 23.2462 125.456 23.0682V23.0398C125.456 22.7481 125.356 22.5227 125.155 22.3636C124.954 22.2045 124.683 22.125 124.342 22.125C123.975 22.125 123.679 22.2045 123.456 22.3636C123.232 22.5227 123.09 22.7424 123.03 23.0227L120.467 22.9318C120.543 22.4015 120.738 21.928 121.053 21.5114C121.371 21.0909 121.806 20.7614 122.359 20.5227C122.916 20.2803 123.585 20.1591 124.365 20.1591C124.922 20.1591 125.435 20.2254 125.905 20.358C126.375 20.4867 126.784 20.6761 127.132 20.9261C127.481 21.1723 127.75 21.4754 127.939 21.8352C128.132 22.1951 128.229 22.6061 128.229 23.0682V29H125.615V27.7841H125.547C125.392 28.0795 125.193 28.3295 124.95 28.5341C124.712 28.7386 124.429 28.892 124.104 28.9943C123.782 29.0966 123.418 29.1477 123.013 29.1477ZM123.871 27.3295C124.17 27.3295 124.439 27.2689 124.678 27.1477C124.92 27.0265 125.113 26.8598 125.257 26.6477C125.401 26.4318 125.473 26.1818 125.473 25.8977V25.0682C125.393 25.1098 125.297 25.1477 125.183 25.1818C125.073 25.2159 124.952 25.2481 124.82 25.2784C124.687 25.3087 124.551 25.3352 124.411 25.358C124.27 25.3807 124.136 25.4015 124.007 25.4205C123.746 25.4621 123.522 25.5265 123.337 25.6136C123.155 25.7008 123.015 25.8144 122.916 25.9545C122.821 26.0909 122.774 26.2538 122.774 26.4432C122.774 26.7311 122.876 26.9508 123.081 27.1023C123.289 27.2538 123.553 27.3295 123.871 27.3295Z" fill="black"/>
</g>
<defs>
<clipPath id="clip0_2013_6">
<rect width="131" height="48" fill="white"/>
</clipPath>
</defs>
</svg>
